<svg width="32" height="32" viewBox="0 0 32 32" fill="none" xmlns="http://www.w3.org/2000/svg">
<path d="M22.2667 25.3066H9.73335C9.17335 25.3066 8.54669 24.8666 8.36002 24.3333L2.84002 8.89327C2.05335 6.67994 2.97335 5.99994 4.86669 7.35994L10.0667 11.0799C10.9334 11.6799 11.92 11.3733 12.2934 10.3999L14.64 4.14661C15.3867 2.14661 16.6267 2.14661 17.3734 4.14661L19.72 10.3999C20.0934 11.3733 21.08 11.6799 21.9334 11.0799L26.8134 7.59994C28.8934 6.10661 29.8934 6.86661 29.04 9.27994L23.6534 24.3599C23.4534 24.8666 22.8267 25.3066 22.2667 25.3066Z" stroke="white" stroke-width="3" stroke-linecap="round" stroke-linejoin="round"/>
<path d="M8.66663 29.3334H23.3333" stroke="white" stroke-width="3" stroke-linecap="round" stroke-linejoin="round"/>
<path d="M12.6666 18.6666H19.3333" stroke="white" stroke-width="3" stroke-linecap="round" stroke-linejoin="round"/>
</svg>
